<svg id="Layer_1" data-name="Layer 1" xmlns="http://www.w3.org/2000/svg" xmlns:xlink="http://www.w3.org/1999/xlink" viewBox="0 0 1500 1000"><defs><style>.cls-1{fill:none;}.cls-2{clip-path:url(#clip-path);}.cls-3{fill:#00873d;}.cls-4{fill:#fff;}.cls-5{fill:#e00024;}</style><clipPath id="clip-path"><path class="cls-1" d="M918.65,125.52H581.35A82.36,82.36,0,0,0,510,166.7L341.37,458.82a82.32,82.32,0,0,0,0,82.36L510,833.3a82.36,82.36,0,0,0,71.33,41.18h337.3A82.36,82.36,0,0,0,990,833.3l168.65-292.12a82.32,82.32,0,0,0,0-82.36L990,166.7A82.36,82.36,0,0,0,918.65,125.52Z"/></clipPath></defs><title>Flag-of-Italy</title><g class="cls-2"><rect class="cls-3" x="270.76" width="319.5" height="1000"/><rect class="cls-4" x="590.25" width="319.5" height="1000"/><rect class="cls-5" x="909.75" width="319.5" height="1000"/></g></svg>